<svg width="79" height="44" viewBox="0 0 79 44" fill="none" xmlns="http://www.w3.org/2000/svg">
<path d="M31.3701 43.2131C31.3701 43.2131 40.2833 38.7366 40.2833 21.5469C40.2833 4.35713 31.3701 0 31.3701 0H42.83C42.83 0 43.8949 15.7969 51.3452 17.906C54.044 18.67 54.1204 18.9665 56.717 17.906C63.5757 15.1048 52.2604 0 52.2604 0H63.0836C63.0836 0 68.1769 12.81 68.1769 21.6066C68.1769 30.4031 63.0836 43.2131 63.0836 43.2131H52.2604C52.2604 43.2131 63.5757 28.1083 56.717 25.3071C54.1204 24.2466 54.044 24.5431 51.3452 25.3071C43.8949 27.4163 42.83 43.2131 42.83 43.2131H31.3701Z" fill="#EAEAEA" fill-opacity="0.917647"/>
<path d="M73.1906 43.7503C70.3853 43.7503 68.1172 41.4822 68.1769 38.7366C68.1172 35.991 70.3853 33.7826 73.1906 33.7826C75.8168 33.7826 78.1446 35.991 78.1446 38.7366C78.1446 41.4822 75.8168 43.7503 73.1906 43.7503Z" fill="#EAEAEA" fill-opacity="0.917647"/>
<path d="M15.444 43.3555H0.370117V10.3555H15.6213C28.508 10.3555 36.3701 16.5544 36.3701 26.8099C36.3701 37.1566 28.508 43.3555 15.444 43.3555ZM9.23711 37.4756H15.0893C23.247 37.4756 27.5031 34.1939 27.5031 26.8099C27.5031 19.4715 23.247 16.2353 15.1484 16.2353H9.23711C9.23711 16.2353 9.20622 18.1649 9.23711 26.8099C9.268 35.4549 9.23711 37.4756 9.23711 37.4756Z" fill="#EAEAEA" fill-opacity="0.917647"/>
<path d="M34.37 9.85683C35.5513 12.0883 34.37 14.3568 34.37 14.3568C34.37 14.3568 29.8701 8.35683 17.707 8.35683C10.9365 8.35683 0.370117 8.35683 0.370117 8.35683C0.370117 8.35683 -0.462759 5.57112 0.370117 4.5C0.870232 3.85683 4.1711 4.5 5.87012 4.5C7.56913 4.5 4.87016 0 6.87016 0C8.87016 0 24.2074 1.79836e-07 26.7887 0C27.3701 -4.05027e-08 25.3701 1.21745 25.3701 4C25.3701 6.5 25.9514 6.53524 29.3701 7.35683C32.4232 8.09058 33.9529 9.06907 34.37 9.85683Z" fill="#7C7C7D"/>
</svg>
