<svg width="23" height="22" viewBox="0 0 23 22" fill="currentColor" xmlns="http://www.w3.org/2000/svg">
<path d="M8.92578 21.168C8.17578 21.168 7.61328 20.8984 7.10938 20.3008L1.0625 12.9766C0.640625 12.4961 0.488281 12.0625 0.488281 11.5703C0.488281 10.4688 1.30859 9.66016 2.44531 9.66016C3.10156 9.66016 3.57031 9.89453 4.00391 10.4102L8.86719 16.4453L18.4531 1.32812C18.9219 0.589844 19.4023 0.308594 20.1758 0.308594C21.3008 0.308594 22.1211 1.10547 22.1211 2.20703C22.1211 2.61719 21.9922 3.05078 21.6875 3.51953L10.7656 20.2188C10.3438 20.8633 9.72266 21.168 8.92578 21.168Z" fill="currentColor"/>
</svg>
