<svg width="460" height="981" viewBox="0 0 460 981" fill="none" xmlns="http://www.w3.org/2000/svg">
<g opacity="0.7">
<path opacity="0.971" fill-rule="evenodd" clip-rule="evenodd" d="M2.48635 -1C50.0392 -1 97.5923 -1 145.145 -1C175.783 175.199 144.577 338.474 51.5253 488.826C34.6294 490.7 17.9116 490.318 1.37183 487.674C-0.477608 324.62 -0.106026 161.728 2.48635 -1Z" fill="#D82F45"/>
<path opacity="0.958" fill-rule="evenodd" clip-rule="evenodd" d="M171.894 1.30022C212.765 0.916196 253.633 1.30045 294.491 2.45275C298.176 42.681 294.088 82.2513 282.231 121.164C275.691 144.53 268.26 167.581 259.941 190.315C221.428 283.668 182.047 376.638 141.802 469.228C137.993 475.954 133.906 482.487 129.542 488.821C113.212 489.974 96.8661 490.357 80.5029 489.974C80.1536 486.809 80.5252 483.734 81.6174 480.754C166.053 333.75 194.659 175.854 167.436 7.06288C168.674 4.73223 170.16 2.81142 171.894 1.30022Z" fill="#91282C"/>
<path opacity="0.972" fill-rule="evenodd" clip-rule="evenodd" d="M321.24 1.30288C367.105 0.550046 412.8 1.31832 458.326 3.60794C471.607 185.491 405.85 327.253 261.056 428.892C232.596 447.257 202.503 462.24 170.78 473.841C167.927 473.581 166.069 472.043 165.207 469.231C210.318 366.54 253.043 262.812 293.377 158.047C309.999 107.073 319.288 54.8242 321.24 1.30288Z" fill="#D82F45"/>
<path opacity="0.96" fill-rule="evenodd" clip-rule="evenodd" d="M0.256855 513.027C50.7873 512.642 101.312 513.027 151.832 514.18C154.389 532.053 154.761 550.109 152.946 568.349C102.955 571.023 52.8015 571.408 2.4859 569.501C0.295863 550.874 -0.447078 532.049 0.256855 513.027Z" fill="#91282C"/>
<path opacity="0.971" fill-rule="evenodd" clip-rule="evenodd" d="M0.257511 593.699C18.6525 592.971 36.8562 593.741 54.8691 596.004C108.455 669.981 141.148 752.963 152.947 844.951C154.433 874.15 154.433 903.345 152.947 932.544C151.545 948.158 148.945 963.526 145.145 978.645C97.0756 981.701 49.1511 981.701 1.37203 978.645C0.257511 850.331 -0.114071 722.018 0.257511 593.699Z" fill="#91282C"/>
<path opacity="0.952" fill-rule="evenodd" clip-rule="evenodd" d="M82.7334 593.703C99.147 592.94 115.493 593.71 131.772 596.008C197.164 670.577 235.427 758.169 246.568 858.785C249.849 899.384 246.506 939.338 236.537 978.649C214.285 981.336 191.994 981.719 169.666 979.801C190.748 842.253 162.143 716.627 83.8479 602.923C82.7557 599.943 82.3841 596.868 82.7334 593.703Z" fill="#D82F45"/>
</g>
</svg>
