<svg width="600" height="600" viewBox="0 0 600 600" fill="none" xmlns="http://www.w3.org/2000/svg">
<path fill-rule="evenodd" clip-rule="evenodd" d="M641 -42H-42V-41.9987H299.333H640.667V299.335V640.668H299.333H-42V641H641V-42ZM306 92.6679C299.733 89.4679 291.467 85.8679 287.467 84.5346C276.8 80.8013 263.067 81.2013 254.933 85.4679C241.6 92.4013 218.133 118.135 197.733 148.001C186.267 164.801 176.267 182.535 177.6 183.735C178 184.268 182.133 184.668 186.8 184.668C195.333 184.668 245.067 193.201 264.667 198.001C350 219.068 447.067 261.601 481.067 292.668L488.4 299.335L489.333 289.735C489.733 284.401 490.933 272.801 492 264.001C492.933 255.201 494.533 236.268 495.467 221.868C497.333 192.935 496.533 186.268 490.533 178.401C482.933 168.401 453.867 151.868 432.667 145.601C426.4 143.735 411.467 140.001 399.333 137.335C370.667 131.201 343.2 123.468 340.667 121.068C338.933 119.335 339.333 119.068 344.4 119.601C347.467 119.868 350 119.735 350 119.335C350 118.135 317.6 98.4013 306 92.6679ZM288.667 265.068C256 254.668 212 245.468 162 238.801C143.6 236.401 94.5333 234.801 90.5333 236.535C89.0667 237.201 86.1333 239.601 84.2667 242.001C81.3333 245.335 80.6667 247.601 80.6667 252.935C80.6667 264.535 88.9333 276.001 104.933 287.068C111.733 291.735 132.267 302.001 134.8 302.001C135.6 302.001 137.2 300.001 138.133 297.601C140.533 291.735 150.667 277.068 156.267 271.201C160.4 266.801 160.667 266.135 158.533 265.468C154.667 264.268 123.067 262.001 108.133 261.868C97.0667 261.735 95.7333 261.468 100.667 260.668C142.667 253.201 213.733 264.001 289.333 289.335C378.267 319.068 442.8 355.468 475.333 394.001C483.333 403.468 481.333 402.535 469.2 391.468C464.133 386.801 461.2 384.935 461.067 386.135C460.841 387.038 459.849 392.729 458.659 399.556C458.445 400.785 458.224 402.052 458 403.335C456.533 412.135 455.867 419.068 456.533 419.735C457.2 420.401 468.533 420.668 481.6 420.401C507.067 419.735 513.067 418.401 517.2 412.401C518.4 410.801 519.333 407.335 519.333 404.668C519.333 400.535 518.133 398.801 508.933 390.001C488.933 370.801 446.533 340.401 413.333 321.335C377.733 300.801 322.533 276.001 288.667 265.068ZM443.867 370.668C384.133 328.001 267.733 283.068 179.333 268.668C176.29 268.161 173.086 267.6 170.741 267.189C169.387 266.952 168.319 266.766 167.733 266.668C165.333 266.135 163.333 267.735 157.6 274.935C141.2 295.601 129.6 320.268 126.133 342.001C119.467 383.201 127.333 424.401 148.267 457.601C178.267 505.468 224.4 532.135 286 537.468C303.733 538.935 335.867 533.335 356.267 525.201C391.2 511.201 425.2 480.135 440.8 447.868C448.8 431.335 459.6 386.135 456.667 380.935C456.133 379.868 450.4 375.335 443.867 370.668Z" fill="#EAEAEA"/>
</svg>
