<svg width="460" height="982" viewBox="0 0 460 982" fill="none" xmlns="http://www.w3.org/2000/svg">
<g opacity="0.7">
<path opacity="0.971" fill-rule="evenodd" clip-rule="evenodd" d="M457.515 0C409.962 0 362.409 0 314.856 0C284.218 176.199 315.424 339.474 408.476 489.826C425.372 491.7 442.089 491.318 458.629 488.674C460.479 325.62 460.107 162.728 457.515 0Z" fill="#D82F45"/>
<path opacity="0.958" fill-rule="evenodd" clip-rule="evenodd" d="M288.106 2.30022C247.234 1.9162 206.367 2.30045 165.509 3.45275C161.824 43.681 165.912 83.2513 177.769 122.164C184.309 145.53 191.74 168.581 200.059 191.315C238.572 284.668 277.953 377.638 318.198 470.228C322.007 476.954 326.094 483.487 330.458 489.821C346.788 490.974 363.134 491.357 379.497 490.974C379.846 487.809 379.475 484.734 378.383 481.754C293.947 334.75 265.341 176.854 292.564 8.06288C291.326 5.73223 289.84 3.81142 288.106 2.30022Z" fill="#91282C"/>
<path opacity="0.972" fill-rule="evenodd" clip-rule="evenodd" d="M138.76 2.30288C92.895 1.55005 47.1996 2.31832 1.67358 4.60794C-11.6071 186.491 54.1498 328.253 198.944 429.892C227.404 448.257 257.497 463.24 289.22 474.841C292.073 474.581 293.931 473.043 294.793 470.231C249.682 367.54 206.957 263.812 166.623 159.047C150.001 108.073 140.712 55.8242 138.76 2.30288Z" fill="#D82F45"/>
<path opacity="0.96" fill-rule="evenodd" clip-rule="evenodd" d="M459.743 514.027C409.213 513.642 358.688 514.027 308.168 515.18C305.61 533.053 305.239 551.109 307.054 569.349C357.045 572.023 407.199 572.408 457.514 570.501C459.704 551.874 460.447 533.049 459.743 514.027Z" fill="#91282C"/>
<path opacity="0.971" fill-rule="evenodd" clip-rule="evenodd" d="M459.743 594.699C441.348 593.971 423.145 594.741 405.132 597.004C351.546 670.981 318.853 753.963 307.054 845.951C305.568 875.15 305.568 904.345 307.054 933.544C308.456 949.158 311.056 964.526 314.856 979.645C362.925 982.701 410.85 982.701 458.629 979.645C459.743 851.331 460.115 723.018 459.743 594.699Z" fill="#91282C"/>
<path opacity="0.952" fill-rule="evenodd" clip-rule="evenodd" d="M377.267 594.703C360.853 593.94 344.507 594.71 328.228 597.008C262.836 671.577 224.573 759.169 213.432 859.785C210.151 900.384 213.494 940.338 223.463 979.649C245.715 982.336 268.006 982.719 290.334 980.801C269.252 843.253 297.857 717.627 376.152 603.923C377.244 600.943 377.616 597.868 377.267 594.703Z" fill="#D82F45"/>
</g>
</svg>
